<svg width="179" height="55" viewBox="0 0 179 55" fill="none" xmlns="http://www.w3.org/2000/svg">
<path d="M10.5153 10.5194C16.3177 4.71699 25.7436 4.71699 31.546 10.5194L54.917 33.8904L33.8863 54.921L10.5153 31.55C4.71298 25.7477 4.71298 16.3217 10.5153 10.5194Z" fill="#DA663B"/>
<path d="M33.884 54.917L12.8534 33.8863L36.2244 10.5153C42.0267 4.71297 51.4527 4.71297 57.255 10.5153C63.0574 16.3177 63.0574 25.7436 57.255 31.546L33.884 54.917Z" fill="#DA663B"/>
<path d="M94.5998 34.2111C103.894 34.2111 111.429 26.6763 111.429 17.3817C111.429 8.08707 103.894 0.552277 94.5998 0.552277C85.3052 0.552277 77.7704 8.08707 77.7704 17.3817C77.7704 26.6763 85.3052 34.2111 94.5998 34.2111Z" fill="#A6C6E2"/>
<path d="M104.509 41.1583H84.696V46.1237H104.509V41.1583Z" fill="#599276"/>
<path d="M104.509 49.4034H84.696V54.3688H104.509V49.4034Z" fill="#599276"/>
<path d="M104.509 22.0024H84.696V37.6524H104.509V22.0024Z" fill="#A6C6E2"/>
<path d="M143.953 4.93643H155.848C168.278 4.93643 178.372 15.0301 178.372 27.4605C178.372 39.8909 168.278 49.9846 155.848 49.9846H121.429V27.4605C121.429 15.0301 131.523 4.93643 143.953 4.93643Z" fill="#4462A9"/>
<path d="M136.469 33.6494C139.079 33.6494 141.195 31.5334 141.195 28.9232C141.195 26.313 139.079 24.197 136.469 24.197C133.859 24.197 131.743 26.313 131.743 28.9232C131.743 31.5334 133.859 33.6494 136.469 33.6494Z" fill="white"/>
<path d="M163.332 33.6494C165.943 33.6494 168.059 31.5334 168.059 28.9232C168.059 26.313 165.943 24.197 163.332 24.197C160.722 24.197 158.606 26.313 158.606 28.9232C158.606 31.5334 160.722 33.6494 163.332 33.6494Z" fill="white"/>
<path d="M149.901 33.6494C152.511 33.6494 154.627 31.5334 154.627 28.9232C154.627 26.313 152.511 24.197 149.901 24.197C147.29 24.197 145.174 26.313 145.174 28.9232C145.174 31.5334 147.29 33.6494 149.901 33.6494Z" fill="white"/>
</svg>
