<svg xmlns="http://www.w3.org/2000/svg" width="43" height="45" fill="none" viewBox="0 0 43 45"><g clip-path="url(#clip0_84_392)"><path fill="#4462A9" d="M21.5 44.5065C33.3741 44.5065 43 34.6567 43 22.5065C43 10.3562 33.3741 0.50647 21.5 0.50647C9.62588 0.50647 0 10.3562 0 22.5065C0 34.6567 9.62588 44.5065 21.5 44.5065Z"/><path fill="#7DA4C9" d="M26.2524 8.54572H16.7478C11.8373 8.54572 7.85657 12.619 7.85657 17.6437V27.3693C7.85657 32.394 11.8373 36.4673 16.7478 36.4673H26.2524C31.1629 36.4673 35.1436 32.394 35.1436 27.3693V17.6437C35.1436 12.619 31.1629 8.54572 26.2524 8.54572Z"/><path fill="#fff" d="M30.7225 22.5041L21.5 13.0671L12.2776 22.5041L21.5 31.941L30.7225 22.5041Z"/></g><defs><clipPath id="clip0_84_392"><rect width="43" height="44" fill="#fff" transform="translate(0 0.50647)"/></clipPath></defs></svg>