<svg width="37" height="35" viewBox="0 0 37 35" fill="none" xmlns="http://www.w3.org/2000/svg">
<g clip-path="url(#clip0_84_400)">
<path d="M29.5593 34.5064C33.1646 34.5064 36.0873 31.5837 36.0873 27.9783C36.0873 24.373 33.1646 21.4503 29.5593 21.4503C25.9539 21.4503 23.0312 24.373 23.0312 27.9783C23.0312 31.5837 25.9539 34.5064 29.5593 34.5064Z" fill="#DA663B"/>
<path d="M7.44079 13.3663C11.0461 13.3663 13.9689 10.4435 13.9689 6.83819C13.9689 3.23284 11.0461 0.31012 7.44079 0.31012C3.83544 0.31012 0.91272 3.23284 0.91272 6.83819C0.91272 10.4435 3.83544 13.3663 7.44079 13.3663Z" fill="#4462A9"/>
<path d="M13.5989 18.0342H4.69886C2.60787 18.0342 0.912781 19.7293 0.912781 21.8203V30.7203C0.912781 32.8113 2.60787 34.5064 4.69886 34.5064H13.5989C15.6899 34.5064 17.385 32.8113 17.385 30.7203V21.8203C17.385 19.7293 15.6899 18.0342 13.5989 18.0342Z" fill="#E4A450"/>
<path d="M32.3013 0.310059H23.4012C21.3102 0.310059 19.6151 2.00514 19.6151 4.09614V12.9962C19.6151 15.0872 21.3102 16.7823 23.4012 16.7823H32.3013C34.3923 16.7823 36.0873 15.0872 36.0873 12.9962V4.09614C36.0873 2.00514 34.3923 0.310059 32.3013 0.310059Z" fill="#599276"/>
</g>
<defs>
<clipPath id="clip0_84_400">
<rect width="35.1746" height="34.1964" fill="white" transform="translate(0.91272 0.31012)"/>
</clipPath>
</defs>
</svg>
