<svg xmlns="http://www.w3.org/2000/svg" width="41" height="35" fill="none" viewBox="0 0 41 35"><g clip-path="url(#clip0_84_405)"><path fill="#4462A9" d="M19.4052 0.0212402H21.5998C31.8633 0.0212402 40.1957 8.35366 40.1957 18.6222V34.5065H0.804276V18.6222C0.804276 8.35366 9.13669 0.0212402 19.4052 0.0212402Z"/><path fill="#E4A450" d="M20.5 34.5064C27.8955 34.5064 33.8907 28.5112 33.8907 21.1158C33.8907 13.7203 27.8955 7.7251 20.5 7.7251C13.1046 7.7251 7.10935 13.7203 7.10935 21.1158C7.10935 28.5112 13.1046 34.5064 20.5 34.5064Z"/><path fill="#4462A9" d="M7.10935 6.1134H33.8907V19.6156H20.6115C13.161 19.6156 7.10935 13.5639 7.10935 6.1134Z"/><path fill="#fff" d="M14.0176 24.1619C14.0176 27.7452 16.9217 30.6494 20.5051 30.6494C24.0884 30.6494 26.9875 27.7452 26.9875 24.1619H14.0176Z"/></g><defs><clipPath id="clip0_84_405"><rect width="39.391" height="34.485" fill="#fff" transform="translate(0.804276 0.0212402)"/></clipPath></defs></svg>