<svg xmlns="http://www.w3.org/2000/svg" width="214" height="103" fill="none" viewBox="0 0 214 103"><path fill="url(#paint0_linear_123_615)" d="M125.996 40.8394H130.787V34.9025H125.996V40.8394ZM116.971 71.2907H121.762V65.3598H116.971V71.2907ZM117.468 40.8334H122.259V34.9025H117.468V40.8334ZM130.254 65.3598H125.463V70.2303C125.463 70.5897 125.463 70.9432 125.511 71.2966H130.362C130.298 70.8161 130.268 70.3316 130.272 69.8469L130.254 65.3598ZM112.144 34.9025H107.353V39.773C107.353 40.1325 107.353 40.4859 107.401 40.8394H112.258C112.195 40.3588 112.165 39.8744 112.168 39.3896L112.144 34.9025ZM161.988 34.9025H157.197V40.8394H161.988V34.9025ZM90.2975 71.2907H95.4598V65.3598H90.2975V71.2907ZM107.006 65.3538C106.516 66.576 106.274 67.8833 106.293 69.1999C106.295 69.9008 106.357 70.6003 106.479 71.2907H111.521C111.344 70.5431 111.257 69.7766 111.264 69.0082C111.213 67.7327 111.516 66.4681 112.138 65.3538H107.006ZM90.2975 40.8334H95.4957V37.179H103.802V34.9025H90.2975V40.8334ZM178.786 71.2907H183.577V65.3598H178.786V71.2907ZM162.491 65.3538C161.982 66.605 161.725 67.9448 161.737 69.2957C161.738 69.9661 161.808 70.6346 161.946 71.2907H167.049C166.81 70.4655 166.695 69.6095 166.707 68.7506C166.666 67.5616 166.958 66.3848 167.552 65.3538H162.491ZM179.733 34.8965C179.851 35.3464 179.914 35.8092 179.918 36.2744L174.301 36.5619C174.349 35.9862 174.494 35.4229 174.732 34.8965H169.762C169.262 36.0832 169.007 37.3589 169.013 38.6467C169.013 39.3828 169.098 40.1165 169.264 40.8334H174.271C174.16 40.4527 174.078 40.0642 174.025 39.6712L184.895 39.4495C184.976 38.7774 185.02 38.1015 185.027 37.4246C185.031 36.5685 184.908 35.7164 184.661 34.8965H179.733ZM193.746 65.3538H188.716C189.055 66.2544 189.212 67.2136 189.177 68.1754V71.2907H193.968V67.7561C193.976 66.9518 193.902 66.1488 193.746 65.3598V65.3538ZM144.369 71.2907H149.16V65.3598H144.369V71.2907ZM143.094 34.8965H138.303V39.767C138.303 40.1265 138.303 40.4799 138.351 40.8334H143.208C143.144 40.3528 143.114 39.8684 143.118 39.3836L143.094 34.8965ZM154.047 65.3538C154.39 66.2409 154.545 67.1894 154.502 68.1395V71.2907H159.293V67.7561C159.296 66.9512 159.216 66.1482 159.054 65.3598L154.047 65.3538ZM135.578 71.2907H140.369V65.3598H135.578V71.2907ZM148.418 40.8334H153.209V34.9025H148.418V40.8334Z"/><path fill="#fff" d="M112.138 30.2114H107.329V34.9022H112.138V30.2114Z"/><path fill="#fff" d="M161.988 33.9021C162.669 33.5353 163.425 33.3303 164.198 33.303C165.32 33.4144 166.41 33.7419 167.408 34.2675L168.911 30.4813C167.653 29.9965 166.319 29.735 164.971 29.7085C163.822 29.7302 162.684 29.9324 161.599 30.3076C161.107 30.5031 160.588 30.6223 160.06 30.661C159.556 30.6294 159.069 30.4617 158.653 30.1758H157.209V34.8666H162L161.988 33.9021Z"/><path fill="#fff" d="M103.802 33.8723H95.4957V28.0312H105.15V24.7603H88.2434V25.3593C88.5306 25.3894 88.8091 25.4757 89.0629 25.6135C89.3167 25.7512 89.5409 25.9376 89.7226 26.1621C90.3215 26.9349 90.3215 28.0252 90.3215 29.469V34.9267H103.826L103.802 33.8723Z"/><path fill="#fff" d="M183.595 64.6171C184.407 64.186 185.306 63.9443 186.224 63.9101C186.671 63.8761 187.119 63.9587 187.524 64.1498C187.93 64.341 188.278 64.6341 188.536 65.0005C188.596 65.1083 188.656 65.2341 188.716 65.3599H193.746C193.589 64.5271 193.278 63.7309 192.83 63.0115C191.632 61.1544 189.494 60.1599 186.901 60.1599C185.768 60.1564 184.645 60.3741 183.595 60.8009V52.3599H178.805V65.3599H183.595V64.6171Z"/><path fill="#fff" d="M130.805 33.4886H135.171V30.2117H130.805V24.2808L125.996 25.431V34.9025H130.805V33.4886Z"/><path fill="#fff" d="M153.227 30.2114H148.418V34.9022H153.227V30.2114Z"/><path fill="#fff" d="M143.088 30.2114H138.279V34.9022H143.088V30.2114Z"/><path fill="#fff" d="M122.277 30.2114H117.468V34.9022H122.277V30.2114Z"/><path fill="#fff" d="M114.983 63.6522C115.674 63.6625 116.353 63.8283 116.971 64.1374V65.3356H121.762V60.0996L118.582 60.8365C117.383 60.4288 116.129 60.2027 114.863 60.1655C113.178 60.1143 111.518 60.5829 110.108 61.5078C108.698 62.4327 107.607 63.7691 106.982 65.3356H112.114C112.404 64.8285 112.821 64.4061 113.324 64.1107C113.827 63.8153 114.399 63.6572 114.983 63.6522Z"/><path fill="#fff" d="M140.387 60.6689H135.578V65.3598H140.387V60.6689Z"/><path fill="#fff" d="M130.254 60.6689H125.445V65.3598H130.254V60.6689Z"/><path fill="#fff" d="M149.178 64.4551C149.936 64.1257 150.748 63.9408 151.574 63.9099C152.015 63.8834 152.455 63.9695 152.853 64.1603C153.251 64.3511 153.594 64.6401 153.85 65.0002C153.915 65.1141 153.975 65.2339 154.035 65.3597H159.06C158.901 64.5281 158.593 63.7323 158.149 63.0113C156.952 61.1541 154.814 60.1597 152.215 60.1597C149.819 60.1597 148.651 61.1182 147.274 61.1182C146.764 61.0871 146.269 60.933 145.831 60.6689H144.357V65.3597H149.148L149.178 64.4551Z"/><path fill="#fff" d="M177.415 33.0035C177.964 32.9945 178.498 33.1803 178.922 33.5281C179.346 33.8758 179.634 34.3628 179.733 34.9026H184.685C183.679 31.6136 180.703 29.7984 177.499 29.7984C175.85 29.7793 174.232 30.2554 172.856 31.1653C171.48 32.0752 170.408 33.377 169.78 34.9026H174.75C174.962 34.3615 175.327 33.8939 175.8 33.5567C176.274 33.2195 176.835 33.0273 177.415 33.0035Z"/><path fill="#fff" d="M95.4598 55.2173H88.2434V55.8164C88.5306 55.8464 88.8091 55.9328 89.0629 56.0705C89.3167 56.2083 89.5409 56.3947 89.7226 56.6191C90.3215 57.392 90.3215 58.5122 90.3215 59.956V65.3837H95.4838L95.4598 55.2173Z"/><path fill="#fff" d="M170.33 60.2558C172.597 60.3391 174.801 61.0257 176.714 62.2447L174.696 66.2526C172.995 64.4553 171.582 63.6885 170.271 63.6885C169.713 63.7127 169.17 63.8789 168.694 64.1714C168.219 64.4639 167.825 64.873 167.552 65.3599H162.491C163.121 63.8106 164.21 62.4911 165.611 61.5787C167.012 60.6663 168.659 60.2047 170.33 60.2558Z"/><path fill="#fff" d="M148.418 43.0799C147.66 43.4093 146.848 43.5942 146.022 43.6251C145.579 43.6559 145.134 43.5718 144.733 43.3808C144.331 43.1898 143.985 42.8984 143.729 42.5348C143.43 42.0139 143.242 41.4366 143.178 40.8394H138.339C138.406 42.1388 138.786 43.4027 139.447 44.5237C140.645 46.3868 142.782 47.3813 145.382 47.3813C147.777 47.3813 148.939 46.4168 150.322 46.4168C150.833 46.4479 151.328 46.602 151.766 46.8661H153.239V40.8394H148.448L148.418 43.0799Z"/><path fill="#fff" d="M117.468 43.0799C116.711 43.4093 115.898 43.5942 115.073 43.6251C114.632 43.6528 114.191 43.5671 113.793 43.3763C113.395 43.1854 113.052 42.8957 112.797 42.5348C112.498 42.0139 112.31 41.4366 112.246 40.8394H107.377C107.445 42.1388 107.825 43.4027 108.485 44.5237C109.683 46.3868 111.821 47.3813 114.42 47.3813C116.815 47.3813 117.977 46.4168 119.361 46.4168C119.871 46.4486 120.366 46.6027 120.804 46.8661H122.277V40.8394H117.486L117.468 43.0799Z"/><path fill="#fff" d="M193.986 71.2969H189.177V77.3236H193.986V71.2969Z"/><path fill="#fff" d="M183.595 71.2969H178.786V77.3236H183.595V71.2969Z"/><path fill="#fff" d="M170.235 77.9347C172.664 77.9048 175.009 77.0396 176.876 75.4844L175.397 72.8245C174.154 73.8237 172.629 74.4063 171.037 74.4899C169.241 74.4899 167.701 73.4535 167.049 71.3208H161.946C162.341 73.2166 163.385 74.915 164.898 76.1226C166.412 77.3302 168.299 77.9711 170.235 77.9347Z"/><path fill="#fff" d="M177.541 47.4772C180.08 47.4772 182.29 46.7343 184.757 45.003L183.218 42.3431C181.422 43.3974 179.727 44.0085 178.248 44.0085C176.451 44.0085 174.948 43.032 174.295 40.8394H169.264C169.655 42.737 170.696 44.4387 172.207 45.6506C173.718 46.8625 175.604 47.5086 177.541 47.4772Z"/><path fill="#fff" d="M135.578 73.5371C134.821 73.8665 134.008 74.0514 133.183 74.0822C132.742 74.11 132.301 74.0243 131.903 73.8334C131.505 73.6426 131.162 73.3529 130.907 72.9919C130.608 72.471 130.42 71.8937 130.356 71.2965H125.505C125.568 72.596 125.946 73.8606 126.607 74.9809C127.805 76.844 129.943 77.8385 132.542 77.8385C134.937 77.8385 136.099 76.874 137.482 76.874C137.993 76.9051 138.488 77.0592 138.926 77.3233H140.399V71.2905H135.608L135.578 73.5371Z"/><path fill="#fff" d="M116.971 73.7288C116.321 74.2127 115.536 74.4827 114.725 74.5016C114.029 74.4964 113.363 74.219 112.869 73.7288C112.183 73.0743 111.712 72.2257 111.521 71.2965H106.479C106.65 72.257 106.965 73.1861 107.413 74.0523C108.097 75.2696 109.102 76.2755 110.319 76.9601C111.536 77.6447 112.917 77.9817 114.312 77.9343C115.38 77.9277 116.437 77.7098 117.42 77.2933C117.884 77.0696 118.386 76.9373 118.9 76.9039C119.411 76.9278 119.908 77.0824 120.343 77.3532H121.786V71.2905H116.995L116.971 73.7288Z"/><path fill="#fff" d="M125.996 42.6606C125.996 44.2002 126.32 45.3564 126.99 46.0933C127.387 46.503 127.867 46.8221 128.398 47.0289C128.93 47.2357 129.499 47.3252 130.068 47.2915C132.027 47.2915 134.434 46.297 136.129 45.2007L135.135 42.4748C134.302 42.8283 132.638 43.5053 131.769 43.5053C131.254 43.5053 130.805 43.2117 130.805 42.4089V40.8394H126.014L125.996 42.6606Z"/><path fill="#fff" d="M159.311 71.2969H154.502V77.3236H159.311V71.2969Z"/><path fill="#fff" d="M161.988 40.8394H157.209V46.8661H161.988V40.8394Z"/><path fill="#fff" d="M149.178 71.2969H144.37V77.3236H149.178V71.2969Z"/><path fill="#fff" d="M90.2975 77.3236H105.437V73.9867H95.4598V71.2969H90.2975V77.3236Z"/><path fill="#fff" d="M95.4957 40.8394H90.2975V46.8661H95.4957V40.8394Z"/><path fill="#fff" d="M67.9238 20.0214V75.2747C67.9238 77.3535 67.0734 78.5636 65.4085 79.2047C58.5508 81.7335 51.2958 83.0138 43.987 82.9849C36.6763 83.0133 29.4194 81.7331 22.5594 79.2047C20.8946 78.5636 20.0442 77.3535 20.0442 75.2747V20.0214H67.9537M69.3371 18.6436H18.6608V75.2747C18.6608 77.8687 19.8106 79.624 22.0684 80.4927C29.0834 83.0879 36.5076 84.4008 43.987 84.3687C51.4662 84.3998 58.8903 83.0869 65.9056 80.4927C68.1633 79.624 69.3072 77.8687 69.3072 75.2747V18.6436H69.3371Z"/><path fill="#0060A9" d="M67.9238 75.2747C67.9238 77.3535 67.0734 78.5637 65.4086 79.2047C58.5506 81.7331 51.2958 83.0133 43.987 82.9849C36.6763 83.0134 29.4194 81.7331 22.5594 79.2047C20.8946 78.5637 20.0442 77.3535 20.0442 75.2747V20.0215H67.9537L67.9238 75.2747Z"/><path fill="#FEDF00" d="M32.884 53.6901C26.2605 49.5564 24.0686 47.6993 23.9009 45.0034C23.8843 44.2752 23.9937 43.5496 24.2243 42.8587L23.6254 42.4453C23.0858 43.2831 22.7855 44.2527 22.7571 45.249C22.7506 46.5694 23.1407 47.8614 23.877 48.9573C24.8052 50.3951 25.7874 51.2937 28.2008 53.103C30.543 54.7898 32.4016 57.0622 33.5906 59.6929H33.9619V57.015C37.4773 59.0099 40.5495 60.885 42.1006 64.2399H42.4659C41.885 60.7652 39.9147 58.1113 32.884 53.6901Z"/><path fill="#FEDF00" d="M63.4203 64.2456H62.9711C62.9711 61.7714 60.7074 61.0945 58.3299 61.0945H50.9039C51.1745 62.4107 51.2312 63.762 51.0716 65.0963H50.7003C50.0116 59.5309 46.8735 56.7751 42.4778 53.8276V56.3617H42.1125C40.9447 53.7497 38.3756 51.2995 35.9322 49.5562L33.9559 48.1483V50.8741H33.5846C32.5725 48.1663 30.7041 46.1294 28.0391 43.7331C25.1525 41.1511 23.9967 39.5994 23.3559 37.8142C22.9775 36.8118 22.7945 35.7462 22.8169 34.675C22.8169 32.5542 23.859 30.6372 25.2124 29.9183V30.9487C24.5488 31.8511 24.1938 32.9436 24.2003 34.0639C24.1997 35.174 24.4624 36.2683 24.9669 37.257C26.5898 40.3423 32.0455 44.1345 35.519 46.4589C46.2986 53.6898 48.4486 54.9539 50.2452 58.794C50.4835 59.3328 50.6719 59.8922 50.8081 60.4654C52.3652 60.2198 57.9945 59.3631 59.0545 59.1954C59.2582 59.1954 59.6534 59.1115 59.887 59.0995C60.8451 58.4782 61.6614 57.6617 62.2824 56.7032L58.0904 56.4037C57.912 56.8133 57.7121 57.2133 57.4915 57.6018H57.1561C57.2699 57.1765 57.3657 56.7631 57.4496 56.3557L56.3956 56.2779V56.0562L57.5394 55.9124C57.7441 54.8194 57.8583 53.7113 57.8808 52.5995L52.7005 52.3C52.7005 52.8331 52.7005 53.3364 52.7005 53.8036H52.3412C52.2274 53.2824 52.1436 52.7672 52.0777 52.264L50.9339 52.1981V51.8506L52.0178 51.7907C51.8825 50.5395 51.8484 49.2793 51.916 48.0225L48.8678 47.8847C49.0206 48.1527 49.1547 48.4309 49.269 48.7174C49.7778 50.3293 49.8745 52.0429 49.5505 53.7018H49.1792C49.0909 52.5403 48.8201 51.4 48.3767 50.323C47.5323 48.334 45.6459 46.5847 42.4778 44.5478V47.082H42.1125C41.0585 43.7511 38.4355 41.8939 34.5368 39.893C31.3209 38.2455 30.3447 36.2506 30.5064 33.1713L31.5904 33.8183C31.6593 35.0421 32.1943 36.193 33.0855 37.0342C33.9766 37.8755 35.156 38.3433 36.3813 38.3414C37.684 38.3216 38.9817 38.1752 40.256 37.904C42.0526 37.5446 43.6875 37.2391 45.047 37.7243V35.993H43.969C43.2995 36.4983 42.4778 36.7603 41.6394 36.7358C40.3698 36.7358 37.9743 36.0289 37.9743 33.345C37.9743 31.0146 39.9446 30.6432 41.5676 30.6432C42.4239 30.6432 43.8552 30.6072 44.3403 30.5833C44.6294 30.5992 44.9145 30.5098 45.1428 30.3316C45.2993 30.1686 45.3963 29.9575 45.4183 29.7326C45.4828 29.3747 45.5149 29.0118 45.5141 28.6482V26.9588H38.0402V29.8943L35.2255 28.822V28.115H36.573V26.9588H31.5545V24.4966H29.8477C29.3328 24.486 28.8334 24.6732 28.4524 25.0198C28.0714 25.3664 27.8378 25.846 27.7995 26.3597C27.7337 27.5579 28.2667 28.5584 29.4943 28.5584H29.7099V29.9842H29.4943C29.0009 29.9931 28.5107 29.9025 28.0529 29.7179C27.5952 29.5333 27.1793 29.2583 26.83 28.9095C26.4807 28.5607 26.2052 28.145 26.0199 27.6874C25.8346 27.2298 25.7433 26.7396 25.7514 26.2459C25.7653 25.7112 25.8851 25.1845 26.1039 24.6964C26.3227 24.2083 26.6361 23.7685 27.026 23.4024C27.4159 23.0363 27.8745 22.7513 28.3753 22.5637C28.8761 22.3762 29.4091 22.29 29.9435 22.31H33.5367V24.7602H47.664V28.3547C47.664 28.9538 47.664 29.7805 47.5742 30.3017C47.553 30.617 47.4651 30.9242 47.3165 31.203C47.1678 31.4818 46.9617 31.7259 46.7118 31.9192C46.0712 32.298 45.3262 32.4618 44.5858 32.3865C44.2385 32.3865 43.2384 32.3865 42.0407 32.2966C40.4297 32.1948 39.9746 32.8178 39.9087 33.393C39.8967 33.5105 39.8967 33.6289 39.9087 33.7464C40.3251 33.404 40.8197 33.1701 41.3485 33.0656C41.8773 32.961 42.4237 32.9891 42.939 33.1473C45.0709 33.8183 45.6758 33.8782 46.7837 33.0036L46.8975 33.2552C46.7222 33.5177 46.5059 33.7503 46.2567 33.9441H47.2508V39.5156L50.4548 37.5985H59.4378L63.8575 39.911C64.0888 40.0119 64.2897 40.1719 64.4399 40.3747C64.5902 40.5776 64.6846 40.8164 64.7139 41.0672C64.7788 41.5242 64.6904 41.9899 64.4623 42.3912L62.7556 45.2068C63.6537 46.1841 64.3407 47.336 64.7738 48.5908C65.207 49.8455 65.3769 51.1761 65.2729 52.4995C65.1689 53.8228 64.7933 55.1106 64.1696 56.2822C63.5458 57.4539 62.6873 58.4843 61.6476 59.3092C62.7279 59.6435 63.6618 60.3367 64.2946 61.2742L63.4203 64.2456ZM43.3821 34.2257C42.1185 33.9501 41.4178 34.1059 40.6932 34.7948C41.0947 34.9832 41.539 35.0617 41.9808 35.0225C42.2582 34.9994 42.5273 34.9162 42.7693 34.7786C43.0113 34.641 43.2204 34.4523 43.3821 34.2257ZM42.6515 42.2594L46.2088 40.1386C45.4674 39.7562 44.6474 39.5511 43.8133 39.5395C42.5856 39.5395 40.5195 40.0847 39.5134 40.2404C39.9746 40.552 41.5616 41.5644 42.6515 42.2594ZM58.5335 42.481L59.0246 41.7921L58.264 40.7736L58.3898 40.546L60.5397 41.7082L60.0726 43.134C60.4489 43.3258 60.8111 43.544 61.1566 43.787L62.5459 41.5105L58.9527 39.6294H51.0177L44.5739 43.4995C45.7148 44.2602 46.7603 45.1553 47.688 46.1654C48.5678 44.9123 49.7322 43.8859 51.0856 43.1705C52.439 42.455 53.9427 42.0709 55.4733 42.0497C56.5095 42.0347 57.5418 42.1802 58.5335 42.481ZM57.8867 51.4672C57.8455 50.3956 57.7133 49.3294 57.4915 48.2801L53.2994 48.0884C53.0142 49.295 52.8141 50.5201 52.7005 51.7548L57.8867 51.4672ZM59.2881 48.364C59.411 49.3736 59.4371 50.3927 59.3659 51.4073L63.558 51.1857C63.4526 50.2591 63.1893 49.3574 62.7795 48.5197L59.2881 48.364ZM57.1621 46.9981C56.8756 45.9428 56.4739 44.9222 55.9644 43.9548C55.7907 43.9548 55.611 43.9548 55.4374 43.9548C55.1449 43.9636 54.853 43.9876 54.563 44.0266C54.1502 45.0685 53.8022 46.1349 53.521 47.2197L57.1621 46.9981ZM58.3179 44.47C58.6119 45.2509 58.8501 46.0516 59.0306 46.8663L61.5818 46.7225C60.6992 45.7186 59.585 44.9454 58.3359 44.47H58.3179ZM63.0011 55.2534C63.3158 54.5223 63.5003 53.7417 63.5461 52.947L59.2162 52.7013C59.0422 53.7737 58.753 54.8242 58.3539 55.8345L63.0011 55.2534ZM52.3412 44.6377C50.983 45.2347 49.8236 46.2074 48.9995 47.4414L51.9939 47.2856C52.0519 46.3964 52.168 45.5119 52.3412 44.6377Z"/><path fill="#fff" d="M46.8436 70.6438C47.4771 70.5686 48.0629 70.2696 48.4955 69.8006C48.9281 69.3316 49.179 68.7234 49.2031 68.0857C49.2031 66.8037 48.6582 65.4019 44.8913 65.4019H38.5313V65.5037C38.7898 65.59 39.0268 65.731 39.226 65.9171C39.445 66.1767 39.6106 66.4771 39.7134 66.8009C39.8162 67.1247 39.854 67.4657 39.8248 67.8042V77.3296H45.0949C47.9934 77.3296 50.0895 76.2213 50.0895 73.6871C50.0895 71.6323 48.5084 70.7516 46.8436 70.6438ZM44.1307 66.5341C45.4782 66.5341 46.3944 66.8277 46.3944 68.2715C46.3944 69.8051 45.1967 70.2305 43.7714 70.2305H42.5736V66.5341H44.1307ZM44.2685 76.2033H42.5677V71.3328H44.1906C46.4184 71.3328 47.2748 71.9977 47.2748 73.6692C47.2748 75.4844 46.1549 76.2033 44.2685 76.2033Z"/><path fill="#fff" d="M33.8362 77.3296H37.2737L32.884 71.7222C34.6446 71.2489 35.9621 70.2844 35.9621 68.541C35.9621 66.4862 34.7644 65.4019 31.5185 65.4019H24.8831V65.5037C25.1427 65.5944 25.3811 65.7371 25.5837 65.9231C26.0449 66.3844 26.1826 67.0793 26.1826 68.0258V77.3296H28.9374V72.0397H29.9435L33.8362 77.3296ZM28.9374 66.5461H30.7939C32.339 66.5461 33.1475 67.0014 33.1475 68.6429C33.1475 70.1106 32.0934 70.9733 30.3986 70.9733H28.9374V66.5461Z"/><path fill="#fff" d="M61.2284 67.0312C61.6426 67.249 61.9809 67.5875 62.1986 68.0017C62.2166 68.0095 62.2359 68.0135 62.2555 68.0135C62.2751 68.0135 62.2944 68.0095 62.3124 68.0017L62.9113 65.9589C62.9113 65.9589 61.8333 65.186 59.2701 65.186C55.3955 65.186 52.4909 67.139 52.4909 71.4165C52.4909 76.2091 55.9524 77.4852 58.9947 77.4852C61.8333 77.4852 62.9472 76.5806 62.9472 76.5806V75.1847C62.9472 75.1847 61.9471 76.1193 59.7971 76.1193C58.0005 76.1193 55.4194 75.3105 55.3655 71.3266C55.3116 67.6722 56.9046 66.4801 59.0426 66.4801C59.8086 66.4537 60.5664 66.6448 61.2284 67.0312Z"/><path fill="#fff" d="M73.3017 82.026C72.7094 82.026 72.1305 81.8503 71.6381 81.5211C71.1457 81.192 70.7619 80.7242 70.5352 80.1769C70.3086 79.6295 70.2493 79.0272 70.3648 78.4462C70.4804 77.8651 70.7656 77.3314 71.1843 76.9125C71.6031 76.4936 72.1366 76.2083 72.7175 76.0927C73.2983 75.9771 73.9004 76.0365 74.4475 76.2632C74.9947 76.4899 75.4623 76.8738 75.7914 77.3664C76.1204 77.859 76.296 78.4381 76.296 79.0306C76.296 79.825 75.9805 80.5869 75.419 81.1486C74.8574 81.7104 74.0958 82.026 73.3017 82.026ZM73.3017 76.6342C72.6663 76.6342 72.057 76.8867 71.6078 77.3361C71.1586 77.7855 70.9062 78.395 70.9062 79.0306C70.9062 79.6661 71.1586 80.2756 71.6078 80.725C72.057 81.1744 72.6663 81.4269 73.3017 81.4269C73.937 81.4269 74.5463 81.1744 74.9955 80.725C75.4448 80.2756 75.6971 79.6661 75.6971 79.0306C75.6971 78.395 75.4448 77.7855 74.9955 77.3361C74.5463 76.8867 73.937 76.6342 73.3017 76.6342ZM73.4993 77.3352C73.6305 77.3255 73.7623 77.3441 73.8857 77.3896C74.0092 77.4351 74.1214 77.5064 74.215 77.5989C74.3086 77.6914 74.3814 77.8029 74.4283 77.9258C74.4753 78.0487 74.4955 78.1803 74.4874 78.3117C74.5062 78.5331 74.4389 78.7533 74.2994 78.9262C74.16 79.0992 73.9592 79.2117 73.7388 79.2402C73.7908 79.282 73.8371 79.3303 73.8766 79.384C74.0682 79.6236 74.6791 80.69 74.6791 80.69H73.8826C73.7568 80.4624 73.7029 80.3785 73.5712 80.1329C73.2418 79.5338 73.134 79.372 73.0142 79.3121C72.9784 79.3074 72.9422 79.3074 72.9064 79.3121V80.714H72.2536V77.3591L73.4993 77.3352ZM72.9004 78.7789H73.128C73.4214 78.7789 73.5472 78.749 73.637 78.6711C73.7206 78.5773 73.7655 78.4553 73.7628 78.3296C73.7752 78.2446 73.7582 78.1579 73.7147 78.0838C73.6711 78.0097 73.6036 77.9527 73.5232 77.9223C73.4004 77.8884 73.2734 77.8723 73.146 77.8743H72.9004V78.7789Z"/><defs><linearGradient id="paint0_linear_123_615" x1="90.297" x2="193.986" y1="53.097" y2="53.097" gradientUnits="userSpaceOnUse"><stop offset=".1" stop-color="#fff"/><stop offset=".13" stop-color="#E9F7FD"/><stop offset=".21" stop-color="#BCE8FA"/><stop offset=".29" stop-color="#96DBF6"/><stop offset=".37" stop-color="#79D1F4"/><stop offset=".45" stop-color="#65CAF2"/><stop offset=".53" stop-color="#58C5F1"/><stop offset=".6" stop-color="#54C4F1"/><stop offset=".9" stop-color="#FFCA32"/></linearGradient></defs></svg>