<svg width="216" height="19" viewBox="0 0 216 19" fill="none" xmlns="http://www.w3.org/2000/svg">
<g clip-path="url(#clip0_54_876)">
<path d="M0 18.4947H4.6914V12.2287H11.4353V7.88297H4.6914V4.85105H13.39V0.50531H0V18.4947Z" fill="white"/>
<path d="M27.171 11.0159C27.171 12.0266 26.8778 12.8351 26.1937 13.5425C25.6072 14.25 24.8253 14.5532 23.9457 14.5532C23.0661 14.5532 22.2842 14.25 21.6977 13.5425C21.1113 12.8351 20.7203 12.0266 20.7203 11.0159V0.50531H16.0289V11.0159C16.0289 13.2394 16.8108 15.1596 18.2769 16.6755C19.743 18.1915 21.6977 19 23.9457 19C26.1937 19 28.1484 18.1915 29.6145 16.6755C31.0805 15.1596 31.8624 13.2394 31.8624 11.0159V0.50531H27.171V11.0159Z" fill="white"/>
<path d="M34.3059 4.85105H39.095V18.4947H43.8841V4.85105H48.6733V0.50531H34.3059V4.85105Z" fill="white"/>
<path d="M62.2588 11.0159C62.2588 12.0266 61.9656 12.8351 61.2815 13.5425C60.695 14.25 59.9131 14.5532 59.0335 14.5532C58.1539 14.5532 57.372 14.25 56.7855 13.5425C56.1991 12.8351 55.8082 12.0266 55.8082 11.0159V0.50531H51.1167V11.0159C51.1167 13.2394 51.8986 15.1596 53.3647 16.6755C54.8308 18.1915 56.7855 19 59.0335 19C61.2815 19 63.2362 18.1915 64.7023 16.6755C66.1683 15.1596 66.9502 13.2394 66.9502 11.0159V0.50531H62.2588V11.0159Z" fill="white"/>
<path d="M82.686 11.7234C82.8815 11.6223 83.0769 11.4202 83.3702 11.117C83.6634 10.8138 83.9566 10.5106 84.2498 10.1064C84.543 9.70213 84.8362 9.19681 85.0317 8.59043C85.2272 7.98404 85.3249 7.2766 85.3249 6.56915C85.3249 4.85106 84.7385 3.33511 83.5656 2.12234C82.3928 0.909575 80.829 0.303192 79.0697 0.303192H70.8598V18.2926H75.5512V12.633H77.9946L81.0245 18.2926H86.0091L82.3928 11.7234H82.686ZM80.0471 7.98404C79.6561 8.28723 79.2652 8.48936 78.6788 8.48936H75.4534V4.85106H78.6788C79.2652 4.85106 79.6561 5.05319 80.0471 5.35638C80.438 5.65957 80.5358 6.16489 80.5358 6.67021C80.6335 7.17553 80.438 7.57979 80.0471 7.98404Z" fill="white"/>
<path d="M93.4371 11.3191H100.083V7.47871H93.4371V4.64893H102.136V0.50531H88.6479V18.4947H102.331V14.3511H93.4371V11.3191Z" fill="white"/>
<path d="M115.917 11.1171C117.383 11.1171 118.653 10.6117 119.729 9.60109C120.804 8.59046 121.292 7.27663 121.292 5.86173C121.292 4.44684 120.804 3.13301 119.729 2.12237C118.653 1.11173 117.383 0.606415 115.917 0.606415C114.451 0.606415 113.18 1.11173 112.105 2.12237C111.03 3.13301 110.541 4.44684 110.541 5.86173C110.541 7.27663 111.03 8.59046 112.105 9.60109C113.18 10.6117 114.451 11.1171 115.917 11.1171ZM113.962 3.84046C114.451 3.33514 115.135 3.03195 115.917 3.03195C116.699 3.03195 117.285 3.33514 117.871 3.84046C118.36 4.34578 118.653 5.05322 118.653 5.86173C118.653 6.67024 118.36 7.37769 117.871 7.88301C117.383 8.38833 116.699 8.69152 115.917 8.69152C115.135 8.69152 114.548 8.38833 113.962 7.88301C113.473 7.37769 113.18 6.67024 113.18 5.86173C113.18 5.05322 113.473 4.34578 113.962 3.84046Z" fill="white"/>
<path d="M122.954 10.9149H125.593V7.37769H129.307V4.95216H125.593V3.33514H130.382V0.909607H122.954V10.9149Z" fill="white"/>
<path d="M146.118 11.5213H148.854V13.4415L148.561 13.7447C148.366 13.9468 147.975 14.149 147.486 14.3511C146.997 14.5532 146.411 14.6543 145.824 14.6543C144.358 14.6543 143.185 14.149 142.306 13.1383C141.328 12.1277 140.84 10.9149 140.84 9.50002C140.84 8.08513 141.328 6.7713 142.306 5.86172C143.283 4.85108 144.456 4.44683 145.824 4.44683C146.313 4.44683 146.9 4.54789 147.388 4.64896C147.877 4.75002 148.268 4.95215 148.659 5.15428C148.952 5.3564 149.245 5.55853 149.538 5.86172C149.832 6.16491 150.027 6.26598 150.125 6.36704C150.223 6.46811 150.223 6.56917 150.32 6.67023L153.155 3.53725L152.862 3.133C152.666 2.93087 152.373 2.62768 151.982 2.22342C151.591 1.92023 151.102 1.51598 150.516 1.21279C149.929 0.909595 149.245 0.606403 148.463 0.303212C147.584 0.101084 146.704 -0.101044 145.824 -0.101044C143.088 -0.101044 140.84 0.808531 138.983 2.72874C137.126 4.64896 136.148 6.87236 136.148 9.39896C136.148 11.9256 137.126 14.25 138.983 16.0692C140.84 17.9894 143.185 18.899 145.824 18.899C146.802 18.899 147.681 18.7979 148.561 18.4947C149.441 18.1915 150.125 17.9894 150.711 17.5851C151.298 17.2819 151.786 16.8777 152.275 16.4734C152.764 16.0692 153.057 15.766 153.252 15.5639C153.448 15.3617 153.546 15.2607 153.546 15.1596V8.48938H146.118V11.5213Z" fill="white"/>
<path d="M166.056 0C163.319 0 161.072 0.909575 159.215 2.82979C157.357 4.75 156.38 6.9734 156.38 9.5C156.38 12.0266 157.357 14.3511 159.215 16.1702C161.072 18.0904 163.417 19 166.056 19C168.793 19 171.041 18.0904 172.898 16.1702C174.755 14.3511 175.732 12.0266 175.732 9.5C175.732 6.9734 174.755 4.64894 172.898 2.82979C171.041 0.909575 168.695 0 166.056 0ZM169.477 13.1383C168.597 14.1489 167.424 14.6543 166.056 14.6543C164.688 14.6543 163.515 14.1489 162.635 13.1383C161.658 12.1277 161.267 10.9149 161.267 9.5C161.267 8.08511 161.756 6.77128 162.635 5.8617C163.613 4.85106 164.688 4.44681 166.056 4.44681C167.424 4.44681 168.597 4.95213 169.477 5.8617C170.357 6.77128 170.845 8.08511 170.845 9.5C170.845 10.9149 170.454 12.2287 169.477 13.1383Z" fill="white"/>
<path d="M187.363 0C184.626 0 182.378 0.909575 180.521 2.82979C178.664 4.75 177.687 6.9734 177.687 9.5C177.687 12.0266 178.664 14.3511 180.521 16.1702C182.378 18.0904 184.724 19 187.363 19C190.002 19 192.348 18.0904 194.205 16.1702C196.062 14.3511 197.039 12.0266 197.039 9.5C197.039 6.9734 196.062 4.64894 194.205 2.82979C192.348 0.909575 190.1 0 187.363 0ZM190.881 13.1383C190.002 14.1489 188.829 14.6543 187.461 14.6543C186.092 14.6543 184.919 14.1489 184.04 13.1383C183.16 12.1277 182.671 10.9149 182.671 9.5C182.671 8.08511 183.16 6.77128 184.04 5.8617C184.919 4.95213 186.092 4.44681 187.461 4.44681C188.829 4.44681 190.002 4.95213 190.881 5.8617C191.761 6.77128 192.25 8.08511 192.25 9.5C192.25 10.9149 191.761 12.2287 190.881 13.1383Z" fill="white"/>
<path d="M213.361 3.13297C211.602 1.41488 209.452 0.50531 206.813 0.50531H200.069V18.4947H206.813C209.452 18.4947 211.699 17.5851 213.361 15.867C215.12 14.1489 216 12.0266 216 9.49999C216 6.97339 215.12 4.85105 213.361 3.13297ZM209.94 12.8351C209.061 13.7447 207.985 14.1489 206.813 14.1489H204.858V4.85105H206.813C208.083 4.85105 209.158 5.25531 210.038 6.16488C210.918 7.07446 211.309 8.0851 211.309 9.49999C211.309 10.8138 210.82 11.9255 209.94 12.8351Z" fill="white"/>
<path d="M129.014 15.0585H111.128V18.3936H129.014V15.0585Z" fill="white"/>
</g>
<defs>
<clipPath id="clip0_54_876">
<rect width="216" height="19" fill="white"/>
</clipPath>
</defs>
</svg>
